/* XPM */
static char *_8f3e2c369a24d07d46463d47a20a412kdfMRtr7kCV37LTI[] = {
/* columns rows colors chars-per-pixel */
"150 40 2 1 ",
"  c gray33",
". c white",
/* pixels */
"                                                                                                                                                      ",
"                                                                                                                                                      ",
"                                                                                                                                                      ",
"                                                                                                                                                      ",
"                                                                                                                                                      ",
"                                                                                                                                                      ",
"                                                                                                                                                      ",
"                                                                                                                                                      ",
"                                                                                                                                                      ",
"                                                                                                                                                      ",
"                                                                                                                                                      ",
"                                                                                                                                                      ",
"                                                                                                                                                      ",
"                                                                                                                                                      ",
"                                                                                                                                                      ",
"                                                                                                                                                      ",
"                                                                                                                                                      ",
"                                                                                                                                                      ",
"                                                                                                                                                      ",
"                                                                                                                                                      ",
"                                                                                                                                                      ",
"                                                                                                                                                      ",
"                                                                                                                                                      ",
"                                                                                                                                                      ",
"                                                                                                                                                      ",
"                                                                                                                                                      ",
"                                                                                                                                                      ",
"                                                                                                                                                      ",
"                                                                                                                                                      ",
"                                                                                                                                                      ",
"                                                                                                                                                      ",
"                                                                                                                                                      ",
"                                                                                                                                                      ",
"                                                                                                                                                      ",
"                                                                                                                                                      ",
"......................................................................................................................................................",
"......................................................................................................................................................",
"......................................................................................................................................................",
"......................................................................................................................................................",
"......................................................................................................................................................"
};
